<svg xmlns="http://www.w3.org/2000/svg" viewBox="0 0 1600 360" fill="none">
  <defs>
    <linearGradient id="bg" x1="0" y1="0" x2="1" y2="1"><stop stop-color="#d7edf2"/><stop offset="1" stop-color="#e7f3f0"/></linearGradient>
    <linearGradient id="glass" x1="0" y1="0" x2="1" y2="1"><stop stop-color="#b8e5ed"/><stop offset="1" stop-color="#6cb4c4"/></linearGradient>
  </defs>
  <path fill="url(#bg)" d="M0 0h1600v360H0z"/>
  <circle cx="230" cy="250" r="220" fill="#fff" fill-opacity=".35"/>
  <path d="M0 298c230-30 413-29 602-3 165 23 332 21 480-2 185-28 331-23 518 2v65H0v-62Z" fill="#c3e0df"/>
  <rect x="932" y="36" width="286" height="284" rx="24" fill="#fff" stroke="#b4d1d1" stroke-width="8"/>
  <rect x="963" y="64" width="224" height="45" rx="11" fill="#edf4f3"/>
  <circle cx="995" cy="86" r="8" fill="#67b89a"/>
  <circle cx="1030" cy="86" r="8" fill="#87bfd0"/>
  <rect x="1060" y="77" width="91" height="18" rx="9" fill="#d4e4e0"/>
  <circle cx="1075" cy="213" r="84" fill="#dae9e8" stroke="#c5d8d7" stroke-width="8"/>
  <circle cx="1075" cy="213" r="65" fill="url(#glass)"/>
  <path d="M1024 228c19-26 39-28 58-4 13 16 25 14 43-7" stroke="#e5fbff" stroke-width="12" stroke-linecap="round"/>
  <path d="m1032 197 24-28 23 20 19-14 29 34-19 25-55 5-25-19 4-23Z" fill="#f1d77f"/>
  <path d="m1056 169 10 21 13-1 19-15 13 24" stroke="#fff4c7" stroke-width="6" stroke-linejoin="round"/>
  <path d="M779 92c23-28 23-47 0-68m44 68c23-28 23-47 0-68m44 68c23-28 23-47 0-68" stroke="#fff" stroke-opacity=".75" stroke-width="8" stroke-linecap="round"/>
  <path d="M341 297h246" stroke="#91bcb6" stroke-width="8" stroke-linecap="round"/>
  <path d="M385 297v-71m158 71v-71" stroke="#91bcb6" stroke-width="8"/>
  <path d="m411 224 24-26 33 8 29 32-8 36h-83l-11-25 16-25Z" fill="#e9a48a"/>
</svg>
